<svg width="191" height="32" viewBox="0 0 191 32" fill="none" xmlns="http://www.w3.org/2000/svg">
<g clip-path="url(#clip0_431_12756)">
<path d="M118.3 17.5152C118.3 14.1939 116.518 12.6206 111.553 11.5369C108.791 10.9425 108.127 10.3133 108.127 9.43924C108.127 8.35546 109.106 7.866 110.923 7.866C113.126 7.866 115.294 8.53026 117.356 9.47421V5.1041C115.923 4.36992 113.685 3.81055 111.064 3.81055C106.134 3.81055 103.582 5.94315 103.582 9.47421C103.582 12.271 104.875 14.5086 109.98 15.4875C113.021 16.1167 113.65 16.6062 113.65 17.62C113.65 18.599 113.021 19.2283 110.854 19.2283C108.371 19.2283 105.4 18.3892 103.477 17.2355V21.8153C105.016 22.5845 107.043 23.4236 110.819 23.4236C116.203 23.4236 118.3 21.0463 118.3 17.5152Z" fill="white"/>
<path d="M172.102 4.09033V23.144H176.157V8.60028L177.87 12.481L183.604 23.144H188.708V4.09033H184.652V16.3966L183.114 12.8306L178.499 4.09033H172.102Z" fill="white"/>
<path d="M146.307 4.09033H141.867V23.109H146.307V4.09033Z" fill="white"/>
<path d="M136.761 17.5152C136.761 14.1939 134.978 12.6206 130.013 11.5369C127.252 10.9425 126.587 10.3133 126.587 9.43924C126.587 8.35546 127.566 7.866 129.384 7.866C131.586 7.866 133.754 8.53026 135.817 9.47421V5.1041C134.383 4.36992 132.146 3.81055 129.524 3.81055C124.594 3.81055 122.042 5.94315 122.042 9.47421C122.042 12.271 123.336 14.5086 128.44 15.4875C131.482 16.1167 132.111 16.6062 132.111 17.62C132.111 18.599 131.482 19.2283 129.314 19.2283C126.832 19.2283 123.86 18.3892 121.938 17.2355V21.8153C123.476 22.5845 125.504 23.4236 129.279 23.4236C134.663 23.4236 136.761 21.0463 136.761 17.5152Z" fill="white"/>
<path d="M69.1797 4.09033V23.144H78.3044L79.7378 19.0186H73.6547V4.09033H69.1797Z" fill="white"/>
<path d="M51.2109 4.09033V8.21571H56.1055V23.144H60.5804V8.21571H65.8596V4.09033H51.2109Z" fill="white"/>
<path d="M44.7389 4.09033H38.9004L32.2578 23.109H37.3272L38.2711 19.8926C39.3899 20.2073 40.5785 20.417 41.8371 20.417C43.0608 20.417 44.2494 20.2422 45.4031 19.8926L46.347 23.109H51.4164L44.7389 4.09033ZM41.8021 16.5015C40.9631 16.5015 40.124 16.3616 39.3549 16.1518L41.8021 7.83115L44.2494 16.1518C43.4802 16.3616 42.6412 16.5015 41.8021 16.5015Z" fill="white"/>
<path d="M94.0044 4.09033H88.1659L81.5234 23.109H86.5927L87.5367 19.8926C88.6554 20.2073 89.844 20.417 91.1027 20.417C92.3263 20.417 93.5149 20.2422 94.6687 19.8926L95.6126 23.109H100.682L94.0044 4.09033ZM91.1027 16.5015C90.2636 16.5015 89.4246 16.3616 88.6554 16.1518L91.1027 7.83115L93.55 16.1518C92.7459 16.3616 91.9417 16.5015 91.1027 16.5015Z" fill="white"/>
<path d="M162.278 4.09033H156.439L149.797 23.109H154.866L155.81 19.8926C156.929 20.2073 158.117 20.417 159.376 20.417C160.6 20.417 161.789 20.2422 162.942 19.8926L163.886 23.109H168.956L162.278 4.09033ZM159.341 16.5015C158.502 16.5015 157.663 16.3616 156.894 16.1518L159.341 7.83115L161.789 16.1518C161.02 16.3616 160.216 16.5015 159.341 16.5015Z" fill="white"/>
<path d="M136.761 17.5156C136.761 14.1943 135.013 12.621 130.013 11.5372C127.252 10.9428 126.587 10.3136 126.587 9.43955C126.587 8.35577 127.566 7.86631 129.384 7.86631C131.586 7.86631 133.754 8.53057 135.817 9.47451V5.1044C133.859 4.19542 131.692 3.77589 129.524 3.81085C124.594 3.81085 122.042 5.94346 122.042 9.47451C122.042 12.2714 123.336 14.5089 128.44 15.4877C131.482 16.1171 132.111 16.6065 132.111 17.6204C132.111 18.6342 131.482 19.2286 129.314 19.2286C126.727 19.1937 124.174 18.4944 121.938 17.2358V21.8157C123.476 22.5849 125.504 23.4239 129.279 23.4239C134.628 23.4239 136.726 21.0466 136.761 17.5156Z" fill="white"/>
<path d="M6.67024 10.8029C6.56535 10.663 6.35559 10.593 6.18078 10.593C6.04094 10.6281 5.9011 10.7329 5.83117 10.8727L0.062636 22.4098C-0.0772074 22.6545 0.0276751 22.9692 0.272401 23.0741C0.342323 23.109 0.412245 23.144 0.482167 23.144H8.52316C8.69797 23.144 8.90773 23.0391 8.97766 22.8643C10.6907 19.3682 9.64191 13.9493 6.67024 10.8029Z" fill="white"/>
<path d="M23.1355 22.4099C22.9956 22.2002 12.3325 0.8041 12.0528 0.279687C11.9829 0.104883 11.843 0 11.6682 0H11.6333C11.4585 0 11.2837 0.104883 11.1788 0.279687C8.27706 4.85956 7.96241 10.4183 10.3048 15.1031L14.1854 22.8294C14.2554 23.0043 14.4302 23.1091 14.6399 23.1091H22.6809C22.9607 23.1091 23.1704 22.8994 23.1704 22.6197C23.1704 22.5498 23.1704 22.4798 23.1355 22.4099Z" fill="white"/>
</g>
<defs>
<clipPath id="clip0_431_12756">
<rect width="190.318" height="31.2317" fill="white"/>
</clipPath>
</defs>
</svg>
