<svg width="188" height="35" viewBox="0 0 188 35" fill="none" xmlns="http://www.w3.org/2000/svg">
<path d="M17.7473 19.1206C17.1117 16.4194 15.9464 14.5126 12.7685 14.5126C9.43169 14.5126 7.36603 16.6312 7.36603 21.3981C7.36603 25.8472 9.16686 28.4425 12.8744 28.4425C16.1053 28.4425 17.3236 26.2709 17.8532 23.6756L24.4739 25.2646C23.6264 31.0908 20.0778 34.7454 12.9274 34.7454C4.98258 34.7454 0.0038254 30.3493 0.0038254 21.7689C0.0038254 13.2414 4.87665 8.2097 12.8744 8.2097C20.3426 8.2097 23.5205 11.7584 24.4209 17.8494L17.7473 19.1206ZM39.7093 34.7454C31.5527 34.7454 26.7328 29.7137 26.7328 21.4511C26.7328 13.0825 31.7115 8.2097 39.7093 8.2097C47.5482 8.2097 52.58 13.0825 52.58 21.4511C52.58 29.7137 47.7071 34.7454 39.7093 34.7454ZM39.6564 14.2478C35.684 14.2478 33.9361 16.8431 33.9361 21.3981C33.9361 25.9531 35.578 28.6014 39.6564 28.6014C43.6818 28.6014 45.3767 25.9531 45.3767 21.3981C45.3767 16.8431 43.6288 14.2478 39.6564 14.2478ZM63.1247 20.021V34.0039H55.9213V8.89825H62.9658V15.6249H63.4954C64.9255 10.752 67.9445 8.2097 71.9169 8.2097C76.366 8.2097 78.5376 11.0169 78.8554 15.7308H79.438C80.8151 10.805 83.6753 8.2097 87.8066 8.2097C92.7324 8.2097 95.2218 11.5465 95.2218 17.002V34.0039H87.9655V19.0147C87.9655 16.4723 86.8002 14.7245 84.152 14.7245C81.08 14.7245 79.1732 16.896 79.1732 20.021V34.0039H71.9699V19.0147C71.9699 16.4723 70.7517 14.7245 68.1564 14.7245C65.0844 14.7245 63.1247 16.896 63.1247 20.021ZM111.056 13.6122C107.773 13.6122 105.919 15.3071 105.548 19.4384H116.035C115.929 15.5189 114.287 13.6122 111.056 13.6122ZM111.162 34.6925C103.588 34.6925 98.3976 30.5082 98.3976 21.9807C98.3976 13.2944 103.112 8.2097 111.268 8.2097C119.001 8.2097 122.656 12.7647 122.656 19.7032C122.656 20.7625 122.603 21.7689 122.497 23.093H105.495C105.919 27.1184 107.773 28.9192 111.215 28.9192C114.605 28.9192 115.664 27.3303 116.3 25.4235L122.338 27.0654C121.226 31.4086 118.313 34.6925 111.162 34.6925ZM136.997 28.3896C140.016 28.3896 142.082 26.165 142.082 22.6693V20.7096C142.082 17.0549 140.122 14.7245 136.944 14.7245C133.501 14.7245 131.912 16.949 131.912 21.6629C131.912 26.165 133.448 28.3896 136.997 28.3896ZM142.082 34.0039V27.4362H141.658C140.387 31.8323 137.633 34.7454 133.448 34.7454C128.046 34.7454 124.868 30.1374 124.868 21.6629C124.868 12.9236 128.046 8.2097 133.554 8.2097C137.58 8.2097 140.281 10.858 141.605 15.2541H142.082V4.44967e-05H149.285V34.0039H142.082ZM161.424 5.34956H153.903V0.158939H161.424V5.34956ZM161.265 34.0039H154.061V8.89825H161.265V34.0039ZM175.154 29.0251C178.438 29.0251 180.504 27.0654 180.504 24.3642V23.3578H175.313C172.983 23.3578 171.5 24.4171 171.5 26.165C171.5 27.754 172.4 29.0251 175.154 29.0251ZM180.874 34.0039V28.0188H180.239C178.968 31.9912 176.319 34.5336 172.029 34.5336C167.792 34.5336 164.667 32.362 164.667 27.4362C164.667 22.9341 167.315 19.8091 173.936 19.8091H180.504V18.0613C180.504 15.466 179.391 13.9829 176.637 13.9829C174.254 13.9829 172.877 15.1482 172.4 17.5846L165.62 16.0486C166.468 11.4936 169.964 8.26266 176.902 8.26266C184.529 8.26266 187.654 11.7584 187.654 18.0613V34.0039H180.874Z" fill="#FFF12B"/>
</svg>
