<svg width="154" height="32" viewBox="0 0 154 32" fill="none" xmlns="http://www.w3.org/2000/svg">
<g clip-path="url(#clip0_431_12769)">
<path d="M0.304688 9.729H12.6949V13.109H4.68736V16.0473H12.3673V19.5608H4.68736V22.5915H12.8281V26.0024H0.304688V9.729Z" fill="#FAFAFA"/>
<path d="M31.9766 9.729H36.39V26.0126H31.9766V9.729Z" fill="#FAFAFA"/>
<path d="M52.4932 10.2531L52.1962 13.7358C48.6327 11.6606 43.1646 12.3283 43.0725 17.7528C42.9701 23.1772 48.7044 23.9683 52.3293 22.1293L52.5546 25.684C46.1444 27.6873 38.485 25.6532 38.5157 17.7528C38.5464 10.0168 46.2673 7.87988 52.4932 10.2531Z" fill="#FAFAFA"/>
<path d="M65.491 9.99623L65.194 13.3865C62.972 12.1537 58.7429 12.1229 58.7429 14.0543C58.7429 16.9104 66.2692 14.8454 66.2692 20.9684C66.2692 26.9887 59.1013 27.0504 54.4524 25.6634L54.78 22.078C57.6882 23.4444 61.8149 23.7423 61.8149 21.3794C61.8149 18.7904 54.2578 20.2493 54.2578 14.4241C54.2578 9.64693 60.156 8.37301 65.491 9.99623Z" fill="#FAFAFA"/>
<path d="M78.8035 9.99623L78.5065 13.3865C76.2845 12.1537 72.0554 12.1229 72.0554 14.0543C72.0554 16.9104 79.5817 14.8454 79.5817 20.9684C79.5817 26.9887 72.4138 27.0504 67.7649 25.6634L68.0925 22.078C71.0007 23.4444 75.1274 23.7423 75.1274 21.3794C75.1274 18.7904 67.5703 20.2493 67.5703 14.4241C67.5806 9.64693 73.4685 8.37301 78.8035 9.99623Z" fill="#FAFAFA"/>
<path d="M99.1328 9.729H104.724L110.049 20.2286V9.729H114.114V26.0126H108.84L103.229 15.3076V26.0126H99.1328V9.729Z" fill="#FAFAFA"/>
<path d="M88.9494 9.33862C93.5369 9.33862 97.0287 12.0303 97.0287 17.9068C97.0287 23.5264 93.5164 26.4133 88.9494 26.4133C84.3927 26.4133 80.8906 23.5881 80.8906 17.9068C80.9009 12.0303 84.3722 9.33862 88.9494 9.33862ZM85.4167 17.9068C85.4167 20.393 86.4816 23.1977 88.9494 23.1977C91.4275 23.1977 92.4617 20.393 92.4822 17.9068C92.5026 15.6672 91.4275 12.6262 88.9494 12.6159C86.4816 12.6159 85.4167 15.4206 85.4167 17.9068Z" fill="#FAFAFA"/>
<path d="M20.1275 16.5918H22.5441C23.6296 16.6123 24.6126 15.9548 24.6023 14.7528C24.5921 13.6843 23.7217 12.9344 22.6056 12.9446H20.1173L20.1275 16.5918ZM15.8984 9.729H23.8548C26.0155 9.729 29.026 10.6844 29.026 14.0645C29.026 16.2322 28.0429 17.4445 26.1895 17.9992C26.2714 17.989 27.2545 18.4205 27.6538 19.643C27.6743 19.6841 29.9271 26.0024 29.9578 26.0126H25.2679L23.5988 21.1224C23.3428 20.3724 22.7899 19.869 21.9912 19.869C21.3051 19.869 20.2197 19.8279 20.2197 19.869V26.0126H15.8984V9.729Z" fill="#FAFAFA"/>
<path d="M153.135 2.24989C152.879 1.45882 152.316 0.842408 151.62 0.493106C150.923 0.143804 150.104 0.0616151 148.732 0.523927L133.208 5.71209C131.847 6.16413 131.232 6.72917 130.884 7.42778C130.536 8.12638 130.454 8.94827 130.72 9.74961C130.976 10.5407 131.539 11.1571 132.236 11.5064C132.932 11.8557 133.751 11.9379 135.123 11.4756L150.647 6.28741C152.009 5.83537 152.623 5.27032 152.971 4.57172C153.32 3.87312 153.401 3.05123 153.135 2.24989Z" fill="#FAFAFA"/>
<path d="M153.135 11.8661C152.879 11.075 152.316 10.4586 151.62 10.1093C150.923 9.76001 150.104 9.67783 148.732 10.1401L133.208 15.3283C131.847 15.7803 131.232 16.3454 130.884 17.044C130.536 17.7426 130.454 18.5645 130.72 19.3658C130.976 20.1569 131.539 20.7733 132.236 21.1226C132.932 21.4719 133.751 21.5541 135.123 21.0918L150.647 15.9036C152.009 15.4516 152.623 14.8865 152.971 14.1879C153.32 13.4893 153.401 12.6674 153.135 11.8661Z" fill="#FAFAFA"/>
<path d="M153.135 21.4818C152.879 20.6908 152.316 20.0743 151.62 19.725C150.923 19.3757 150.104 19.2935 148.732 19.7559L133.208 24.944C131.847 25.3961 131.232 25.9611 130.884 26.6597C130.536 27.3583 130.454 28.1802 130.72 28.9815C130.976 29.7726 131.539 30.389 132.236 30.7383C132.932 31.0876 133.751 31.1698 135.123 30.7075L150.647 25.5193C152.009 25.057 152.623 24.5023 152.971 23.8037C153.32 23.105 153.401 22.2832 153.135 21.4818Z" fill="#FAFAFA"/>
</g>
<defs>
<clipPath id="clip0_431_12769">
<rect width="153.598" height="31.2317" fill="white"/>
</clipPath>
</defs>
</svg>
