<svg width="94" height="31" viewBox="0 0 94 31" fill="none" xmlns="http://www.w3.org/2000/svg">
<path d="M39.9155 16.1579C39.9155 20.5752 36.4598 23.8303 32.2189 23.8303C27.9779 23.8303 24.5222 20.5752 24.5222 16.1579C24.5222 11.7093 27.9779 8.48538 32.2189 8.48538C36.4598 8.48538 39.9155 11.7093 39.9155 16.1579ZM36.5463 16.1579C36.5463 13.3974 34.5434 11.5087 32.2189 11.5087C29.8943 11.5087 27.8914 13.3974 27.8914 16.1579C27.8914 18.8906 29.8943 20.807 32.2189 20.807C34.5434 20.807 36.5463 18.8872 36.5463 16.1579ZM56.5196 16.1579C56.5196 20.5752 53.0639 23.8303 48.823 23.8303C44.582 23.8303 41.1263 20.5752 41.1263 16.1579C41.1263 11.7128 44.582 8.48538 48.823 8.48538C53.0639 8.48538 56.5196 11.7093 56.5196 16.1579ZM53.1504 16.1579C53.1504 13.3974 51.1475 11.5087 48.823 11.5087C46.4984 11.5087 44.4955 13.3974 44.4955 16.1579C44.4955 18.8906 46.4984 20.807 48.823 20.807C51.1475 20.807 53.1504 18.8872 53.1504 16.1579ZM72.4319 8.94891V22.7234C72.4319 28.3895 69.0903 30.7037 65.1399 30.7037C61.4213 30.7037 59.1832 28.2166 58.3392 26.1826L61.2726 24.9615C61.7949 26.2103 63.0748 27.6839 65.1365 27.6839C67.6651 27.6839 69.2321 26.1238 69.2321 23.1869V22.0834H69.1145C68.3604 23.014 66.9076 23.8269 65.0742 23.8269C61.238 23.8269 57.7234 20.4853 57.7234 16.1855C57.7234 11.8546 61.238 8.48538 65.0742 8.48538C66.9041 8.48538 68.357 9.29829 69.1145 10.2011H69.2321V8.95237H72.4319V8.94891ZM69.4708 16.1855C69.4708 13.4839 67.6686 11.5087 65.3752 11.5087C63.0506 11.5087 61.1031 13.4839 61.1031 16.1855C61.1031 18.8595 63.0506 20.807 65.3752 20.807C67.6686 20.807 69.4708 18.8595 69.4708 16.1855ZM77.7072 0.875174V23.3599H74.4209V0.875174H77.7072ZM90.5131 18.6831L93.1282 20.4265C92.2842 21.6753 90.2502 23.8269 86.7356 23.8269C82.3771 23.8269 79.122 20.4576 79.122 16.1544C79.122 11.5917 82.4047 8.48192 86.3586 8.48192C90.3401 8.48192 92.2876 11.6505 92.9241 13.3628L93.2735 14.2345L83.017 18.4824C83.8022 20.0218 85.0233 20.807 86.7356 20.807C88.4514 20.807 89.6413 19.963 90.5131 18.6831ZM82.4635 15.9226L89.3196 13.0757C88.9426 12.1175 87.808 11.4499 86.4727 11.4499C84.7604 11.4499 82.3771 12.9616 82.4635 15.9226ZM12.0829 14.1619V10.9068H23.052C23.1592 11.4741 23.2146 12.1452 23.2146 12.8716C23.2146 15.3138 22.547 18.3337 20.3954 20.4853C18.3026 22.6646 15.6286 23.8269 12.0864 23.8269C5.52086 23.8269 0 18.479 0 11.9134C0 5.3479 5.52086 0 12.0864 0C15.7185 0 18.306 1.42518 20.2501 3.28277L17.9532 5.57967C16.5591 4.2721 14.6704 3.25509 12.0829 3.25509C7.28851 3.25509 3.53875 7.119 3.53875 11.9134C3.53875 16.7079 7.28851 20.5718 12.0829 20.5718C15.1927 20.5718 16.9638 19.323 18.0985 18.1884C19.0186 17.2683 19.624 15.9538 19.8626 14.1584L12.0829 14.1619Z" fill="white"/>
</svg>
