<svg width="130" height="32" viewBox="0 0 130 32" fill="none" xmlns="http://www.w3.org/2000/svg">
<g clip-path="url(#clip0_431_12724)">
<path d="M42.1128 22.0705L37.2734 10.7021H40.4147L43.4712 18.2394L46.4002 10.7021H49.4566L44.7022 22.0705H42.1128Z" fill="white"/>
<path d="M60.8719 16.3238C60.8719 17.0734 60.7446 17.7813 60.5323 18.5309C60.3201 19.2388 59.938 19.9051 59.5135 20.4464C59.0466 21.0294 58.4947 21.4875 57.7731 21.8206C57.0939 22.1538 56.2449 22.3203 55.311 22.3203C54.3771 22.3203 53.5705 22.1538 52.8489 21.8206C52.1697 21.4875 51.5754 21.0294 51.1084 20.4464C50.6415 19.8634 50.3019 19.2388 50.0896 18.5309C49.8349 17.823 49.75 17.0734 49.75 16.3238C49.75 15.5743 49.8774 14.8664 50.0896 14.1584C50.3019 13.4505 50.6839 12.8259 51.1084 12.2429C51.5754 11.7016 52.1272 11.2435 52.8489 10.9104C53.5281 10.5772 54.3771 10.4106 55.311 10.4106C56.2449 10.4106 57.0514 10.5772 57.7306 10.9104C58.4098 11.2435 59.0041 11.7016 59.4711 12.2429C59.938 12.7843 60.2776 13.4505 60.5323 14.1584C60.7446 14.8664 60.8719 15.6159 60.8719 16.3238ZM57.9004 16.3238C57.9004 15.8658 57.858 15.4077 57.7306 14.9913C57.6033 14.5749 57.4335 14.2001 57.2212 13.9086C57.009 13.6171 56.7118 13.3672 56.4147 13.159C56.1175 12.9508 55.7355 12.8675 55.2685 12.8675C54.844 12.8675 54.462 12.9508 54.1224 13.159C53.7828 13.3256 53.5281 13.5755 53.3158 13.9086C53.1036 14.2001 52.9338 14.5749 52.8064 14.9913C52.6791 15.4077 52.6366 15.8658 52.6366 16.3238C52.6366 16.8236 52.6791 17.2816 52.8064 17.698C52.9338 18.1145 53.1036 18.4892 53.3158 18.7807C53.5281 19.1139 53.8252 19.3637 54.1224 19.5303C54.462 19.6969 54.844 19.8218 55.2685 19.8218C55.693 19.8218 56.0751 19.7385 56.4147 19.5303C56.7543 19.3637 57.009 19.1139 57.2212 18.7807C57.4335 18.4476 57.6033 18.1145 57.7306 17.698C57.858 17.2816 57.9004 16.8236 57.9004 16.3238Z" fill="white"/>
<path d="M70.0819 22.0704L69.9546 21.1959C69.6999 21.4874 69.3178 21.7789 68.8933 21.9871C68.4264 22.1953 67.917 22.3202 67.3227 22.3202C66.5161 22.3202 65.8369 22.1536 65.2002 21.8205C64.6058 21.4874 64.0964 21.0293 63.6719 20.488C63.2474 19.9466 62.9503 19.2803 62.738 18.5724C62.5258 17.8645 62.3984 17.0733 62.3984 16.3237C62.3984 15.5742 62.5258 14.8663 62.738 14.1583C62.9503 13.4504 63.2899 12.8258 63.7568 12.2428C64.2238 11.7014 64.7756 11.2434 65.4548 10.9102C66.1341 10.5771 66.9406 10.4105 67.8745 10.4105C68.4688 10.4105 69.148 10.5355 69.8272 10.7437V6.32959H72.7987V22.0704H70.0819ZM69.8272 13.2006C69.2329 12.9924 68.7235 12.8674 68.2141 12.8674C67.7047 12.8674 67.2802 12.9507 66.8982 13.1589C66.5161 13.3671 66.219 13.617 66.0067 13.9085C65.752 14.2416 65.5822 14.6164 65.4548 14.9912C65.3275 15.4076 65.2851 15.824 65.2851 16.2404C65.2851 16.6985 65.3275 17.1566 65.4548 17.6146C65.5397 18.0311 65.7096 18.4475 65.9218 18.739C66.1341 19.0721 66.3888 19.322 66.7284 19.5302C67.068 19.7384 67.45 19.8217 67.8745 19.8217C68.2566 19.8217 68.6386 19.7384 69.0207 19.5302C69.4027 19.322 69.6574 19.1138 69.8272 18.8223V13.2006Z" fill="white"/>
<path d="M81.4629 22.0703L81.3355 21.2375C80.9959 21.5706 80.6139 21.8621 80.1045 22.0703C79.5951 22.2786 79.0432 22.3618 78.4489 22.3618C77.9395 22.3618 77.4725 22.2786 77.0056 22.112C76.5386 21.9454 76.1566 21.6956 75.7745 21.4041C75.4349 21.1126 75.1378 20.7378 74.9255 20.2797C74.7133 19.8217 74.5859 19.322 74.5859 18.739C74.5859 18.156 74.7133 17.6563 74.9255 17.2398C75.1378 16.8234 75.4774 16.4486 75.8594 16.1571C76.2415 15.8656 76.7084 15.6158 77.1754 15.4076C77.6848 15.1994 78.1942 15.0744 78.7461 14.9912C79.1281 14.9079 79.5526 14.8662 80.0196 14.8246C80.4865 14.7829 80.8686 14.7413 81.1657 14.6997V14.5331C81.1657 13.9085 80.9959 13.4504 80.6563 13.2005C80.3167 12.9507 79.8498 12.7841 79.2979 12.7841C78.9583 12.7841 78.6187 12.8258 78.3216 12.909C78.0244 12.9923 77.7273 13.0756 77.515 13.2005C77.2603 13.3255 77.0481 13.4504 76.8783 13.5753C76.7085 13.7002 76.5386 13.7835 76.4113 13.9085L75.4349 11.868C75.5623 11.7431 75.7745 11.6181 76.0292 11.4516C76.2839 11.285 76.6235 11.1601 77.0056 10.9935C77.3876 10.8269 77.8122 10.702 78.2791 10.6187C78.7461 10.5354 79.2555 10.4521 79.8073 10.4521C80.4441 10.4521 81.0384 10.5354 81.5478 10.702C82.0572 10.8686 82.5241 11.1184 82.9062 11.4932C83.2882 11.8263 83.5854 12.2844 83.7976 12.8258C84.0099 13.3671 84.1372 14.0334 84.1372 14.7829V22.0703H81.4629ZM81.2506 16.7401C80.911 16.7401 80.6139 16.7818 80.2743 16.8234C79.9347 16.8651 79.5951 16.9067 79.2979 16.99C78.6612 17.1149 78.1942 17.3231 77.9395 17.6563C77.6848 17.9478 77.5575 18.2809 77.5575 18.6557C77.5575 19.0305 77.6848 19.322 77.982 19.5718C78.2791 19.8217 78.6612 19.9049 79.1706 19.9049C79.5526 19.9049 79.9347 19.8217 80.3167 19.6551C80.6988 19.4885 80.9959 19.2803 81.2506 19.0721V16.7401Z" fill="white"/>
<path d="M93.4335 8.91154C93.3486 8.8699 93.1363 8.78661 92.8816 8.70333C92.5845 8.62004 92.2449 8.5784 91.7779 8.5784C91.3534 8.5784 91.0138 8.70333 90.7167 8.95318C90.4195 9.20304 90.2922 9.57782 90.2922 10.1608V10.7022H92.7967V13.0758H90.3346V22.0705H87.3631V13.0341H85.75V10.6605H87.2782V10.0359C87.2782 9.28632 87.3631 8.66169 87.5754 8.16198C87.7876 7.66227 88.0423 7.24585 88.3819 6.91271C88.7215 6.57957 89.146 6.37136 89.613 6.20479C90.0799 6.03822 90.5893 5.99658 91.1412 5.99658C91.8628 5.99658 92.4571 6.07987 92.9241 6.20479C93.391 6.32972 93.6882 6.413 93.7731 6.49629L93.4335 8.91154Z" fill="white"/>
<path d="M104.513 16.3238C104.513 17.0734 104.385 17.7813 104.173 18.5309C103.961 19.2388 103.579 19.9051 103.154 20.4464C102.687 21.0294 102.135 21.4875 101.414 21.8206C100.735 22.1538 99.8855 22.3203 98.9516 22.3203C98.0177 22.3203 97.2111 22.1538 96.4895 21.8206C95.8103 21.4875 95.216 21.0294 94.749 20.4464C94.2821 19.8634 93.9425 19.2388 93.7302 18.5309C93.4755 17.823 93.3906 17.0734 93.3906 16.3238C93.3906 15.5743 93.518 14.8664 93.7302 14.1584C93.9425 13.4505 94.3245 12.8259 94.749 12.2429C95.216 11.7016 95.7678 11.2435 96.4895 10.9104C97.1687 10.5772 98.0177 10.4106 98.9516 10.4106C99.8855 10.4106 100.692 10.5772 101.371 10.9104C102.05 11.2435 102.645 11.7016 103.112 12.2429C103.579 12.7843 103.918 13.4505 104.173 14.1584C104.385 14.8664 104.513 15.6159 104.513 16.3238ZM101.584 16.3238C101.584 15.8658 101.541 15.4077 101.414 14.9913C101.286 14.5749 101.117 14.2001 100.904 13.9086C100.692 13.6171 100.395 13.3672 100.098 13.159C99.7582 12.9925 99.4186 12.8675 98.9516 12.8675C98.5271 12.8675 98.145 12.9508 97.8054 13.159C97.4658 13.3256 97.2111 13.5755 96.9989 13.9086C96.7866 14.2001 96.6168 14.5749 96.4895 14.9913C96.3621 15.4077 96.3197 15.8658 96.3197 16.3238C96.3197 16.8236 96.3621 17.2816 96.4895 17.698C96.6168 18.1145 96.7866 18.4892 96.9989 18.7807C97.2111 19.1139 97.5083 19.3637 97.8054 19.5303C98.145 19.6969 98.5271 19.8218 98.9516 19.8218C99.3761 19.8218 99.7582 19.7385 100.098 19.5303C100.437 19.3637 100.692 19.1139 100.904 18.7807C101.117 18.4476 101.286 18.1145 101.414 17.698C101.499 17.2816 101.584 16.8236 101.584 16.3238Z" fill="white"/>
<path d="M113.766 22.0703V15.5741C113.766 14.6997 113.596 14.0334 113.214 13.5753C112.832 13.1173 112.322 12.8674 111.686 12.8674C111.219 12.8674 110.794 12.9923 110.412 13.2422C110.03 13.492 109.691 13.7419 109.393 14.0334V22.0703H106.422V10.702H109.139L109.266 11.6181C109.733 11.2434 110.242 10.9519 110.837 10.7436C111.431 10.5354 112.025 10.4521 112.62 10.4521C113.214 10.4521 113.808 10.5354 114.318 10.7436C114.827 10.9102 115.294 11.2017 115.634 11.6181C116.016 11.9929 116.27 12.5343 116.483 13.1589C116.695 13.7835 116.78 14.5331 116.78 15.4076V22.0703H113.766Z" fill="white"/>
<path d="M121.576 17.115C121.661 18.0727 121.959 18.7807 122.51 19.1971C123.062 19.6135 123.784 19.8217 124.633 19.8217C125.057 19.8217 125.397 19.7801 125.779 19.6968C126.119 19.6135 126.458 19.5302 126.713 19.4053C126.968 19.2804 127.222 19.1971 127.435 19.0722C127.647 18.9472 127.774 18.8639 127.859 18.7807L128.666 21.1543C128.538 21.2376 128.368 21.3208 128.114 21.4874C127.859 21.6123 127.562 21.7373 127.18 21.8622C126.798 21.9871 126.373 22.0704 125.864 22.1537C125.355 22.237 124.803 22.2786 124.208 22.2786C123.444 22.2786 122.723 22.1537 122.043 21.9038C121.364 21.654 120.77 21.3208 120.261 20.8211C119.751 20.3214 119.327 19.6968 119.029 18.9472C118.732 18.1977 118.562 17.3232 118.562 16.2821C118.562 15.3244 118.69 14.4499 118.987 13.742C119.284 12.9924 119.666 12.3678 120.133 11.8681C120.643 11.3683 121.194 10.9936 121.831 10.7021C122.468 10.4522 123.19 10.2856 123.911 10.2856C124.633 10.2856 125.312 10.4106 125.949 10.6188C126.586 10.8686 127.137 11.2018 127.562 11.7015C128.029 12.2012 128.368 12.8258 128.666 13.617C128.92 14.4082 129.048 15.3244 129.048 16.4487V16.9484H121.576V17.115ZM126.076 15.0329C126.034 14.6581 125.949 14.2833 125.821 13.9918C125.694 13.7003 125.524 13.4505 125.312 13.2839C125.1 13.1173 124.888 12.9507 124.675 12.8675C124.421 12.7842 124.208 12.7425 123.954 12.7425C123.444 12.7425 122.935 12.9507 122.468 13.3255C122.001 13.7003 121.704 14.2833 121.661 15.0329H126.076Z" fill="white"/>
<path d="M15.9189 0C18.2835 1.68913e-05 20.5278 0.507512 22.5459 1.41602C22.2814 1.36071 21.9074 1.33301 21.5615 1.33301C18.2504 1.37465 14.5992 2.74867 11.9248 4.91406C9.2082 7.16278 7.08594 10.9107 7.08594 14.7832C7.12851 20.6546 11.6707 24.3193 16.043 24.3193C21.4341 24.3193 24.6182 19.9462 24.6182 15.9902C24.618 12.0344 22.4099 9.16169 17.5283 7.9541V7.7041C17.4861 4.72266 19.795 2.07065 22.6592 1.46777C28.0798 3.95896 31.8379 9.3594 31.8379 15.6162C31.8377 24.236 24.706 31.2314 15.9189 31.2314C7.13188 31.2314 0.000200418 24.236 0 15.6162C0 6.99626 7.13175 0 15.9189 0Z" fill="white"/>
<path d="M42.1128 22.0705L37.2734 10.7021H40.4147L43.4712 18.2394L46.4002 10.7021H49.4566L44.7022 22.0705H42.1128Z" fill="white"/>
<path d="M60.8719 16.3238C60.8719 17.0734 60.7446 17.7813 60.5323 18.5309C60.3201 19.2388 59.938 19.9051 59.5135 20.4464C59.0466 21.0294 58.4947 21.4875 57.7731 21.8206C57.0939 22.1538 56.2449 22.3203 55.311 22.3203C54.3771 22.3203 53.5705 22.1538 52.8489 21.8206C52.1697 21.4875 51.5754 21.0294 51.1084 20.4464C50.6415 19.8634 50.3019 19.2388 50.0896 18.5309C49.8349 17.823 49.75 17.0734 49.75 16.3238C49.75 15.5743 49.8774 14.8664 50.0896 14.1584C50.3019 13.4505 50.6839 12.8259 51.1084 12.2429C51.5754 11.7016 52.1272 11.2435 52.8489 10.9104C53.5281 10.5772 54.3771 10.4106 55.311 10.4106C56.2449 10.4106 57.0514 10.5772 57.7306 10.9104C58.4098 11.2435 59.0041 11.7016 59.4711 12.2429C59.938 12.7843 60.2776 13.4505 60.5323 14.1584C60.7446 14.8664 60.8719 15.6159 60.8719 16.3238ZM57.9004 16.3238C57.9004 15.8658 57.858 15.4077 57.7306 14.9913C57.6033 14.5749 57.4335 14.2001 57.2212 13.9086C57.009 13.6171 56.7118 13.3672 56.4147 13.159C56.1175 12.9508 55.7355 12.8675 55.2685 12.8675C54.844 12.8675 54.462 12.9508 54.1224 13.159C53.7828 13.3256 53.5281 13.5755 53.3158 13.9086C53.1036 14.2001 52.9338 14.5749 52.8064 14.9913C52.6791 15.4077 52.6366 15.8658 52.6366 16.3238C52.6366 16.8236 52.6791 17.2816 52.8064 17.698C52.9338 18.1145 53.1036 18.4892 53.3158 18.7807C53.5281 19.1139 53.8252 19.3637 54.1224 19.5303C54.462 19.6969 54.844 19.8218 55.2685 19.8218C55.693 19.8218 56.0751 19.7385 56.4147 19.5303C56.7543 19.3637 57.009 19.1139 57.2212 18.7807C57.4335 18.4476 57.6033 18.1145 57.7306 17.698C57.858 17.2816 57.9004 16.8236 57.9004 16.3238Z" fill="white"/>
<path d="M70.0819 22.0704L69.9546 21.1959C69.6999 21.4874 69.3178 21.7789 68.8933 21.9871C68.4264 22.1953 67.917 22.3202 67.3227 22.3202C66.5161 22.3202 65.8369 22.1536 65.2002 21.8205C64.6058 21.4874 64.0964 21.0293 63.6719 20.488C63.2474 19.9466 62.9503 19.2803 62.738 18.5724C62.5258 17.8645 62.3984 17.0733 62.3984 16.3237C62.3984 15.5742 62.5258 14.8663 62.738 14.1583C62.9503 13.4504 63.2899 12.8258 63.7568 12.2428C64.2238 11.7014 64.7756 11.2434 65.4548 10.9102C66.1341 10.5771 66.9406 10.4105 67.8745 10.4105C68.4688 10.4105 69.148 10.5355 69.8272 10.7437V6.32959H72.7987V22.0704H70.0819ZM69.8272 13.2006C69.2329 12.9924 68.7235 12.8674 68.2141 12.8674C67.7047 12.8674 67.2802 12.9507 66.8982 13.1589C66.5161 13.3671 66.219 13.617 66.0067 13.9085C65.752 14.2416 65.5822 14.6164 65.4548 14.9912C65.3275 15.4076 65.2851 15.824 65.2851 16.2404C65.2851 16.6985 65.3275 17.1566 65.4548 17.6146C65.5397 18.0311 65.7096 18.4475 65.9218 18.739C66.1341 19.0721 66.3888 19.322 66.7284 19.5302C67.068 19.7384 67.45 19.8217 67.8745 19.8217C68.2566 19.8217 68.6386 19.7384 69.0207 19.5302C69.4027 19.322 69.6574 19.1138 69.8272 18.8223V13.2006Z" fill="white"/>
<path d="M81.4629 22.0703L81.3355 21.2375C80.9959 21.5706 80.6139 21.8621 80.1045 22.0703C79.5951 22.2786 79.0432 22.3618 78.4489 22.3618C77.9395 22.3618 77.4725 22.2786 77.0056 22.112C76.5386 21.9454 76.1566 21.6956 75.7745 21.4041C75.4349 21.1126 75.1378 20.7378 74.9255 20.2797C74.7133 19.8217 74.5859 19.322 74.5859 18.739C74.5859 18.156 74.7133 17.6563 74.9255 17.2398C75.1378 16.8234 75.4774 16.4486 75.8594 16.1571C76.2415 15.8656 76.7084 15.6158 77.1754 15.4076C77.6848 15.1994 78.1942 15.0744 78.7461 14.9912C79.1281 14.9079 79.5526 14.8662 80.0196 14.8246C80.4865 14.7829 80.8686 14.7413 81.1657 14.6997V14.5331C81.1657 13.9085 80.9959 13.4504 80.6563 13.2005C80.3167 12.9507 79.8498 12.7841 79.2979 12.7841C78.9583 12.7841 78.6187 12.8258 78.3216 12.909C78.0244 12.9923 77.7273 13.0756 77.515 13.2005C77.2603 13.3255 77.0481 13.4504 76.8783 13.5753C76.7085 13.7002 76.5386 13.7835 76.4113 13.9085L75.4349 11.868C75.5623 11.7431 75.7745 11.6181 76.0292 11.4516C76.2839 11.285 76.6235 11.1601 77.0056 10.9935C77.3876 10.8269 77.8122 10.702 78.2791 10.6187C78.7461 10.5354 79.2555 10.4521 79.8073 10.4521C80.4441 10.4521 81.0384 10.5354 81.5478 10.702C82.0572 10.8686 82.5241 11.1184 82.9062 11.4932C83.2882 11.8263 83.5854 12.2844 83.7976 12.8258C84.0099 13.3671 84.1372 14.0334 84.1372 14.7829V22.0703H81.4629ZM81.2506 16.7401C80.911 16.7401 80.6139 16.7818 80.2743 16.8234C79.9347 16.8651 79.5951 16.9067 79.2979 16.99C78.6612 17.1149 78.1942 17.3231 77.9395 17.6563C77.6848 17.9478 77.5575 18.2809 77.5575 18.6557C77.5575 19.0305 77.6848 19.322 77.982 19.5718C78.2791 19.8217 78.6612 19.9049 79.1706 19.9049C79.5526 19.9049 79.9347 19.8217 80.3167 19.6551C80.6988 19.4885 80.9959 19.2803 81.2506 19.0721V16.7401Z" fill="white"/>
<path d="M93.4335 8.91154C93.3486 8.8699 93.1363 8.78661 92.8816 8.70333C92.5845 8.62004 92.2449 8.5784 91.7779 8.5784C91.3534 8.5784 91.0138 8.70333 90.7167 8.95318C90.4195 9.20304 90.2922 9.57782 90.2922 10.1608V10.7022H92.7967V13.0758H90.3346V22.0705H87.3631V13.0341H85.75V10.6605H87.2782V10.0359C87.2782 9.28632 87.3631 8.66169 87.5754 8.16198C87.7876 7.66227 88.0423 7.24585 88.3819 6.91271C88.7215 6.57957 89.146 6.37136 89.613 6.20479C90.0799 6.03822 90.5893 5.99658 91.1412 5.99658C91.8628 5.99658 92.4571 6.07987 92.9241 6.20479C93.391 6.32972 93.6882 6.413 93.7731 6.49629L93.4335 8.91154Z" fill="white"/>
<path d="M104.513 16.3238C104.513 17.0734 104.385 17.7813 104.173 18.5309C103.961 19.2388 103.579 19.9051 103.154 20.4464C102.687 21.0294 102.135 21.4875 101.414 21.8206C100.735 22.1538 99.8855 22.3203 98.9516 22.3203C98.0177 22.3203 97.2111 22.1538 96.4895 21.8206C95.8103 21.4875 95.216 21.0294 94.749 20.4464C94.2821 19.8634 93.9425 19.2388 93.7302 18.5309C93.4755 17.823 93.3906 17.0734 93.3906 16.3238C93.3906 15.5743 93.518 14.8664 93.7302 14.1584C93.9425 13.4505 94.3245 12.8259 94.749 12.2429C95.216 11.7016 95.7678 11.2435 96.4895 10.9104C97.1687 10.5772 98.0177 10.4106 98.9516 10.4106C99.8855 10.4106 100.692 10.5772 101.371 10.9104C102.05 11.2435 102.645 11.7016 103.112 12.2429C103.579 12.7843 103.918 13.4505 104.173 14.1584C104.385 14.8664 104.513 15.6159 104.513 16.3238ZM101.584 16.3238C101.584 15.8658 101.541 15.4077 101.414 14.9913C101.286 14.5749 101.117 14.2001 100.904 13.9086C100.692 13.6171 100.395 13.3672 100.098 13.159C99.7582 12.9925 99.4186 12.8675 98.9516 12.8675C98.5271 12.8675 98.145 12.9508 97.8054 13.159C97.4658 13.3256 97.2111 13.5755 96.9989 13.9086C96.7866 14.2001 96.6168 14.5749 96.4895 14.9913C96.3621 15.4077 96.3197 15.8658 96.3197 16.3238C96.3197 16.8236 96.3621 17.2816 96.4895 17.698C96.6168 18.1145 96.7866 18.4892 96.9989 18.7807C97.2111 19.1139 97.5083 19.3637 97.8054 19.5303C98.145 19.6969 98.5271 19.8218 98.9516 19.8218C99.3761 19.8218 99.7582 19.7385 100.098 19.5303C100.437 19.3637 100.692 19.1139 100.904 18.7807C101.117 18.4476 101.286 18.1145 101.414 17.698C101.499 17.2816 101.584 16.8236 101.584 16.3238Z" fill="white"/>
<path d="M113.766 22.0703V15.5741C113.766 14.6997 113.596 14.0334 113.214 13.5753C112.832 13.1173 112.322 12.8674 111.686 12.8674C111.219 12.8674 110.794 12.9923 110.412 13.2422C110.03 13.492 109.691 13.7419 109.393 14.0334V22.0703H106.422V10.702H109.139L109.266 11.6181C109.733 11.2434 110.242 10.9519 110.837 10.7436C111.431 10.5354 112.025 10.4521 112.62 10.4521C113.214 10.4521 113.808 10.5354 114.318 10.7436C114.827 10.9102 115.294 11.2017 115.634 11.6181C116.016 11.9929 116.27 12.5343 116.483 13.1589C116.695 13.7835 116.78 14.5331 116.78 15.4076V22.0703H113.766Z" fill="white"/>
<path d="M121.576 17.115C121.661 18.0727 121.959 18.7807 122.51 19.1971C123.062 19.6135 123.784 19.8217 124.633 19.8217C125.057 19.8217 125.397 19.7801 125.779 19.6968C126.119 19.6135 126.458 19.5302 126.713 19.4053C126.968 19.2804 127.222 19.1971 127.435 19.0722C127.647 18.9472 127.774 18.8639 127.859 18.7807L128.666 21.1543C128.538 21.2376 128.368 21.3208 128.114 21.4874C127.859 21.6123 127.562 21.7373 127.18 21.8622C126.798 21.9871 126.373 22.0704 125.864 22.1537C125.355 22.237 124.803 22.2786 124.208 22.2786C123.444 22.2786 122.723 22.1537 122.043 21.9038C121.364 21.654 120.77 21.3208 120.261 20.8211C119.751 20.3214 119.327 19.6968 119.029 18.9472C118.732 18.1977 118.562 17.3232 118.562 16.2821C118.562 15.3244 118.69 14.4499 118.987 13.742C119.284 12.9924 119.666 12.3678 120.133 11.8681C120.643 11.3683 121.194 10.9936 121.831 10.7021C122.468 10.4522 123.19 10.2856 123.911 10.2856C124.633 10.2856 125.312 10.4106 125.949 10.6188C126.586 10.8686 127.137 11.2018 127.562 11.7015C128.029 12.2012 128.368 12.8258 128.666 13.617C128.92 14.4082 129.048 15.3244 129.048 16.4487V16.9484H121.576V17.115ZM126.076 15.0329C126.034 14.6581 125.949 14.2833 125.821 13.9918C125.694 13.7003 125.524 13.4505 125.312 13.2839C125.1 13.1173 124.888 12.9507 124.675 12.8675C124.421 12.7842 124.208 12.7425 123.954 12.7425C123.444 12.7425 122.935 12.9507 122.468 13.3255C122.001 13.7003 121.704 14.2833 121.661 15.0329H126.076Z" fill="white"/>
</g>
<defs>
<clipPath id="clip0_431_12724">
<rect width="129.091" height="31.2317" fill="white"/>
</clipPath>
</defs>
</svg>
