<svg width="52" height="36" viewBox="0 0 52 36" fill="none" xmlns="http://www.w3.org/2000/svg">
<path d="M29.5063 31.0366C29.5558 31.1187 29.5842 31.2148 29.5842 31.3176C29.5842 31.5504 29.438 31.7494 29.2319 31.8284C26.1407 34.4329 22.1627 36 17.8222 36C7.97928 36 0 27.9411 0 18C0 8.05887 7.97928 0 17.8222 0C22.2463 0 26.2939 1.62808 29.4097 4.32338C29.4178 4.3304 29.4255 4.33862 29.4328 4.3479C29.5267 4.4485 29.5842 4.58382 29.5842 4.73264C29.5842 4.87531 29.5313 5.00558 29.4442 5.10475C29.4383 5.11299 29.4319 5.12044 29.4253 5.12699C27.5887 6.94015 26.1385 9.15097 25.2113 11.6216C25.2071 11.6328 25.2022 11.6437 25.1967 11.6544C25.1075 11.8459 24.9139 11.9786 24.6896 11.9786C24.5186 11.9786 24.3655 11.9015 24.2628 11.7801C22.6405 10.067 20.3547 9 17.8222 9C12.9008 9 8.91111 13.0294 8.91111 18C8.91111 22.9706 12.9008 27 17.8222 27C20.3513 27 22.6343 25.9359 24.2562 24.2269C24.3589 24.1008 24.5149 24.0203 24.6897 24.0203C24.9317 24.0203 25.1378 24.1746 25.2159 24.3906C26.1448 26.8603 27.5964 29.07 29.4342 30.8818C29.467 30.9141 29.491 30.9694 29.5063 31.0366Z" fill="currentColor"/>
<path d="M42.3972 27.128C47.3844 27.128 51.4273 23.0795 51.4273 18.0854C51.4273 13.0913 47.3844 9.04272 42.3972 9.04272C37.4101 9.04272 33.3672 13.0913 33.3672 18.0854C33.3672 23.0795 37.4101 27.128 42.3972 27.128Z" fill="currentColor"/>
</svg>
