<svg width="110" height="30" viewBox="0 0 110 30" fill="none" xmlns="http://www.w3.org/2000/svg">
<path d="M108.435 16.8567C107.606 16.2736 106.612 16.0086 105.617 15.7436L105.506 15.6906C104.512 15.4256 103.904 15.1606 103.517 14.8426C103.13 14.5246 102.909 14.1005 102.909 13.4115C102.909 13.0935 102.964 12.8285 103.019 12.5635C103.13 12.2984 103.24 12.0864 103.462 11.8744C103.683 11.6624 103.959 11.4504 104.291 11.3444C104.622 11.2384 105.009 11.1324 105.396 11.1324C105.727 11.1324 106.059 11.1854 106.391 11.2914C106.667 11.3974 106.943 11.5564 107.109 11.7154C107.275 11.8744 107.441 12.1394 107.551 12.4045C107.662 12.6695 107.717 12.9875 107.717 13.3585V13.9945H109.596V13.3585C109.596 12.1924 109.154 11.1854 108.38 10.4964C107.606 9.80732 106.556 9.3833 105.341 9.3833C104.235 9.3833 103.13 9.75432 102.356 10.3373C101.417 11.0794 100.975 12.1394 100.975 13.4645C101.03 14.7366 101.417 15.5846 102.301 16.2736C103.075 16.8567 104.125 17.1747 105.175 17.4927C106.28 17.7047 106.999 18.0227 107.441 18.4998C107.883 18.9238 108.049 19.4538 108.104 20.1958V20.3018C108.104 20.6729 108.049 20.9909 107.883 21.3089C107.772 21.6269 107.551 21.8919 107.33 22.1569C107.109 22.422 106.777 22.581 106.446 22.74C106.114 22.899 105.727 22.952 105.341 22.952C104.456 22.952 103.738 22.687 103.185 22.2099C102.688 21.7329 102.356 20.9909 102.356 20.1958V19.5598H100.477L100.422 20.3549C100.422 20.8849 100.532 21.4149 100.698 21.8919C100.919 22.369 101.196 22.846 101.582 23.217C102.025 23.694 102.633 24.065 103.24 24.3301C103.848 24.5951 104.567 24.7011 105.285 24.7011C105.948 24.7011 106.556 24.5951 107.164 24.3301C107.772 24.065 108.27 23.747 108.712 23.27C109.154 22.846 109.486 22.3159 109.651 21.7859C109.872 21.2559 109.928 20.6199 109.928 20.0368C109.928 18.6588 109.43 17.5987 108.435 16.8567Z" fill="white"/>
<path d="M100.307 2.27912H97.8203L99.8099 3.65718L99.0362 5.9363L101.026 4.55823L103.015 5.9363L102.242 3.65718L104.231 2.27912H101.744L101.081 0L100.307 2.27912Z" fill="white"/>
<path d="M92.9016 21.4667L87.9277 9.43506H85.8828L86.4355 10.7601C86.4907 10.8661 87.8724 14.2053 89.1988 17.5445L91.7963 23.9578L89.0882 30.0001H91.1884L99.7546 10.8131L100.307 9.48806H98.2071L92.9016 21.4667Z" fill="white"/>
<path d="M74.1157 12.8802C74.8342 12.2442 75.4421 11.8732 76.1606 11.6082C76.8238 11.3432 77.5422 11.2371 78.537 11.2371C79.6423 11.2371 80.7477 11.5552 81.6872 12.0852C82.7925 12.7212 83.5662 13.6753 84.0084 14.8413L84.1742 15.2654H86.219L85.8874 14.4173C85.2795 12.7742 84.1742 11.3962 82.6267 10.5481C81.3556 9.80608 79.9187 9.43506 78.4265 9.43506C76.2711 9.43506 74.2263 10.2301 72.7893 11.6612C71.2972 13.0922 70.5234 15.0003 70.5234 17.1204C70.5234 19.0815 71.2972 20.9896 72.5683 22.3677C74.0605 23.9578 76.1053 24.7528 78.5923 24.7528C80.2503 24.7528 81.7977 24.2758 83.0688 23.4278C84.34 22.5797 85.3347 21.3607 85.8874 19.8766L86.219 19.0285H84.1742L84.0084 19.4526C83.6768 20.3006 83.0136 21.2016 82.1293 21.7847C81.0793 22.5267 79.8081 22.8977 78.4818 22.9507C77.6528 22.9507 76.879 22.7917 76.1606 22.5267C75.4421 22.2617 74.7789 21.8377 74.2263 21.3077C73.6736 20.7776 73.2315 20.1416 72.8999 19.3996C72.5683 18.6575 72.4578 17.8625 72.4578 17.0674C72.4578 16.2724 72.6235 15.4244 72.9551 14.6823C73.1762 13.9403 73.5631 13.3043 74.1157 12.8802Z" fill="white"/>
<path d="M66.7083 18.0757C66.653 18.4468 66.5425 18.8178 66.432 19.1358C65.9898 20.3018 65.2714 21.2559 64.2766 21.9449C63.2818 22.634 62.1212 22.952 60.8501 22.952C58.971 22.952 57.4236 22.3159 56.3183 21.1499C55.3235 20.0898 54.7708 18.6058 54.7708 17.1217C54.7708 15.4786 55.3788 13.9945 56.4841 12.9345C57.5894 11.8744 59.1368 11.2384 60.7948 11.2384C62.0107 11.2384 63.2265 11.5564 64.2213 12.1924C65.2161 12.8285 65.9898 13.7295 66.3767 14.7896C66.5425 15.1076 66.5978 15.4256 66.7083 15.7966C66.7636 16.1676 66.8188 16.5387 66.8188 16.9097C66.7636 17.3337 66.7636 17.7047 66.7083 18.0757ZM66.7083 9.4363V11.9274C66.3214 11.5034 65.824 11.0794 65.2714 10.7084C63.945 9.86032 62.3975 9.3833 60.7396 9.3833C57.7552 9.3833 55.8761 10.7084 54.8261 11.8214C53.555 13.1995 52.7812 15.1076 52.7812 17.0157C52.7812 18.9238 53.4997 20.8319 54.8261 22.2099C55.8761 23.323 57.6999 24.6481 60.7396 24.6481C62.287 24.6481 63.7239 24.277 64.9398 23.588C65.603 23.217 66.2109 22.687 66.7083 22.1039V24.6481H68.5873V9.4363H66.7083Z" fill="white"/>
<path d="M49.1895 10.9201C48.6921 10.3901 48.0289 10.019 47.3104 9.75403C45.9288 9.27701 44.0497 9.22401 42.447 9.86004C41.6733 10.1781 40.9548 10.6551 40.4574 11.2381C40.2364 11.4501 40.0706 11.7151 39.9048 11.9801C39.6837 11.6621 39.5179 11.3971 39.4074 11.2911C38.91 10.7081 38.1915 10.2311 37.4178 9.91304C36.6441 9.59503 35.7598 9.43602 34.8203 9.43602C34.2124 9.43602 33.3281 9.54202 32.3886 9.96604C31.7807 10.2311 31.228 10.6021 30.7306 11.0791V9.43602H28.8516V24.7538H30.7306V16.1143C30.7306 15.2663 30.8411 14.5773 31.0069 13.9942C31.1727 13.4112 31.5043 12.9342 31.8912 12.4572C32.1675 12.0861 32.6097 11.7681 33.1623 11.5031C33.715 11.2911 34.2676 11.1321 34.8203 11.1851C35.5388 11.1851 36.202 11.3441 36.7546 11.5561C37.3073 11.7681 37.6941 12.1392 38.081 12.5632C38.4126 12.9872 38.5784 13.3582 38.7442 13.7822C38.91 14.3123 38.9653 14.9483 38.9653 15.8493V24.7008H40.8443V16.2204C40.8443 15.3193 40.8996 14.5773 41.0101 13.9942C41.1206 13.4642 41.397 13.0402 41.7838 12.5102C42.1154 12.0861 42.6128 11.7151 43.2208 11.5031C44.3261 11.0791 45.6525 11.1321 46.592 11.4501C47.0341 11.6091 47.421 11.8741 47.7526 12.1922C48.1394 12.5632 48.471 13.0932 48.6921 13.7292C48.9132 14.4183 49.0237 15.2663 49.0237 16.2204V24.7008H50.9027V16.2204C50.9027 15.0543 50.7369 13.9942 50.4606 13.1462C50.2396 12.2452 49.7422 11.5031 49.1895 10.9201Z" fill="white"/>
<path d="M13.4849 0L10.3348 9.43447H0L8.34518 15.2648L5.19501 24.6992L13.4849 18.8689L21.8301 24.7522L18.6247 15.2648L26.9146 9.43447H16.6351L13.4849 0Z" fill="white"/>
</svg>
