<svg width="93" height="26" viewBox="0 0 93 26" fill="none" xmlns="http://www.w3.org/2000/svg">
<g clip-path="url(#clip0_431_12748)">
<path d="M0.304688 1.06214H7.71873C9.41456 1.06214 11.4138 2.64624 12.3052 3.51744L25.3125 17.941V1.06214H29.7312V24.0906H21.9958C20.6177 24.0442 19.2646 23.7609 17.6878 22.2113L4.70194 7.76156V24.0906H0.304688L0.304688 1.06214Z" fill="white"/>
<path d="M92.4288 24.2473C87.1366 24.9697 81.7826 25.0412 76.4178 24.5901C73.2773 24.3128 70.201 23.6665 67.3818 22.1943C63.8223 20.3495 62.6882 16.203 62.7358 12.4445C62.7751 8.97515 63.8068 5.27137 66.9022 3.25404C68.9312 1.92225 71.0983 1.48546 73.4011 1.06771C79.6869 -0.0403271 85.9847 0.209607 92.117 0.882049V4.1669C84.8851 2.76132 77.2461 3.11122 74.6506 6.43416C73.0286 8.50147 72.7977 10.5581 72.7977 12.2898C72.7977 15.4104 73.8652 20.1448 80.2058 21.0648C84.3424 21.6718 88.4374 21.2112 92.4288 20.484V24.2473Z" fill="white"/>
<path d="M47.1406 20.6661C47.7666 20.672 57.7332 20.7184 61.1546 20.6661V24.1068C54.2631 24.3722 47.6416 24.4877 40.6798 24.1985C34.7724 23.9545 33.7549 20.9838 33.6406 18.1298V1.06169H60.825V4.34059H43.2384V10.2033H59.2672V13.4037H43.2384C43.2384 15.1354 43.2955 17.0991 43.3122 17.4526C43.4062 19.6854 44.4415 20.5066 47.1406 20.6661Z" fill="white"/>
</g>
<defs>
<clipPath id="clip0_431_12748">
<rect width="92.7352" height="25.1798" fill="white"/>
</clipPath>
</defs>
</svg>
